# xmcd
#
# Track frame offsets:
#	182
#	9202
#	20990
#	43430
#	54320
#	62842
#	85200
#	96517
#	120940
#	134002
#	142667
#	160912
#	172135
#	184612
#	195782
#	206172
#	231087
#
# Disc length: 3340 seconds
#
# Revision: 1
# Processed by: cddbd v1.4PL0 Copyright (c) Steve Scherf et al.
# Submitted via: EasyCDDAExtractor 5.0.7
#
DISCID=ea0d0a11
DTITLE=Lonnie Donegan - The Originals
DYEAR=1991
DGENRE=Skiffle
TTITLE0=Wabash Cannonball
TTITLE1=How Long, How Long Blues
TTITLE2=Nobody's Child
TTITLE3=I Shall NOt Be Moved
TTITLE4=I'm Alabammy Bound
TTITLE5=I'm A Ramblin' Man
TTITLE6=Wreck Of The Old "97"
TTITLE7=Frankie And Johnny
TTITLE8=Lonesome Traveller
TTITLE9=The Sunshine Of His Love
TTITLE10=Ain't No More Cane On The Brazos
TTITLE11=Ain't You Glad You've Got Religion
TTITLE12=Times Are Getting Hard Boys
TTITLE13=Lazy John
TTITLE14=Light From The Lighthouse
TTITLE15=I've Got Rocks In My Bed
TTITLE16=Long Summer Day
EXTD=
EXTT0=
EXTT1=
EXTT2=
EXTT3=
EXTT4=
EXTT5=
EXTT6=
EXTT7=
EXTT8=
EXTT9=
EXTT10=
EXTT11=
EXTT12=
EXTT13=
EXTT14=
EXTT15=
EXTT16=
PLAYORDER=
